<svg width="40" height="40" viewBox="0 0 40 40" fill="none" xmlns="http://www.w3.org/2000/svg">
  <path d="M20 40C31.0457 40 40 31.0457 40 20C40 8.9543 31.0457 0 20 0C8.9543 0 0 8.9543 0 20C0 31.0457 8.9543 40 20 40Z" fill="none" stroke="currentColor" stroke-width="1.5"/>
  <path d="M20 0C20 0 30 8.9543 30 20C30 31.0457 20 40 20 40C20 40 10 31.0457 10 20C10 8.9543 20 0 20 0Z" fill="currentColor"/>
  <circle cx="20" cy="10" r="3" fill="white"/>
  <circle cx="20" cy="30" r="3" fill="currentColor" stroke="white" stroke-width="1.5"/>
</svg> 