<?xml version="1.0" standalone="no"?>
<!DOCTYPE svg PUBLIC "-//W3C//DTD SVG 20010904//EN"
 "http://www.w3.org/TR/2001/REC-SVG-20010904/DTD/svg10.dtd">
<svg version="1.0" xmlns="http://www.w3.org/2000/svg"
 width="1024.000000pt" height="1024.000000pt" viewBox="0 0 1024.000000 1024.000000"
 preserveAspectRatio="xMidYMid meet">

<g transform="translate(0.000000,1024.000000) scale(0.100000,-0.100000)"
fill="#000000" stroke="none">
<path d="M4880 7960 c-30 -5 -77 -8 -105 -9 -27 -1 -72 -10 -100 -20 -27 -11
-117 -36 -200 -55 -82 -20 -205 -53 -272 -75 -149 -49 -465 -202 -556 -270
-37 -28 -104 -75 -150 -105 -114 -76 -179 -133 -303 -264 -106 -112 -132 -144
-276 -331 -83 -108 -194 -295 -274 -460 -55 -112 -77 -141 -50 -65 7 22 30 72
50 112 20 39 36 78 36 86 0 12 -28 31 -36 23 -2 -1 -31 -63 -65 -137 -74 -161
-148 -381 -196 -580 -41 -175 -49 -235 -59 -452 -7 -163 -6 -168 13 -168 12 0
27 -14 39 -37 12 -23 29 -39 41 -41 18 -3 22 -12 28 -70 6 -62 25 -187 41
-272 3 -19 7 -48 9 -65 1 -16 5 -39 9 -50 35 -97 36 -101 20 -80 -16 20 -16
19 -10 -5 3 -14 6 -31 6 -37 0 -7 5 -12 11 -10 6 1 15 -8 20 -21 6 -15 5 -21
-1 -17 -6 3 -10 1 -10 -6 0 -30 -20 10 -38 75 -10 39 -24 72 -30 74 -7 2 -4
-22 9 -65 10 -37 19 -72 19 -78 0 -14 -26 37 -40 80 -7 20 -13 35 -15 33 -5
-4 18 -90 29 -108 5 -8 0 -6 -12 5 -21 20 -82 201 -82 242 0 20 -16 40 -25 31
-5 -4 53 -239 60 -247 3 -2 0 -10 -5 -16 -10 -12 28 -156 64 -239 9 -21 16
-46 16 -56 0 -16 24 -74 98 -234 15 -32 36 -64 47 -72 10 -8 20 -24 21 -36 1
-32 49 -122 88 -166 18 -20 47 -58 65 -84 38 -53 58 -65 79 -44 12 12 23 5 80
-53 36 -36 55 -54 44 -40 -12 14 -22 31 -22 37 0 28 47 2 112 -63 39 -38 65
-61 57 -50 -8 11 -19 25 -25 30 -25 23 -84 103 -84 114 0 25 30 7 89 -54 70
-72 96 -89 34 -22 -21 23 -53 63 -71 89 -28 41 -31 50 -20 68 7 11 17 20 21
20 17 0 73 -45 169 -136 118 -112 236 -204 385 -301 116 -75 215 -133 226
-133 16 0 0 26 -26 42 -15 10 -27 21 -26 25 4 23 -3 35 -15 30 -10 -4 -13 -1
-9 9 3 9 -2 14 -15 14 -12 0 -23 4 -27 9 -3 6 7 6 26 1 32 -10 59 -27 57 -38
-3 -27 4 -34 27 -28 14 4 25 3 24 -1 -3 -19 2 -23 21 -13 15 8 18 8 14 -3 -3
-10 9 -20 37 -31 23 -9 44 -15 46 -12 3 3 -6 8 -20 11 -15 4 -32 14 -39 23
-11 13 -10 14 9 4 37 -20 40 -13 4 9 -19 11 -40 27 -48 35 -17 17 -27 18 -17
2 5 -8 2 -9 -10 -5 -10 4 -19 7 -22 7 -2 0 -2 6 0 13 1 6 1 9 -1 5 -6 -9 -33
2 -33 14 0 5 6 6 13 2 6 -4 3 3 -8 15 -15 17 13 7 103 -38 128 -65 202 -95
202 -83 0 16 -17 31 -43 41 -16 6 -26 15 -22 20 3 6 -5 15 -17 21 -22 11 -22
10 -4 -4 23 -18 14 -21 -15 -5 -11 5 -16 15 -13 21 4 7 3 8 -4 4 -7 -4 -27 4
-44 17 -18 14 -53 35 -78 47 -25 13 -58 33 -73 46 -16 13 -33 22 -37 19 -5 -3
-12 0 -16 6 -5 8 -3 9 7 4 9 -5 11 -5 4 2 -16 17 -105 63 -115 60 -16 -4 -70
37 -66 50 3 7 -1 10 -9 7 -8 -3 -25 3 -39 13 -26 18 -36 40 -13 27 7 -4 9 -3
4 2 -5 5 -13 10 -18 10 -5 1 -13 2 -18 3 -6 0 -16 13 -23 27 -7 15 -27 35 -45
44 -22 12 -29 20 -21 28 7 7 -23 43 -101 121 -61 62 -111 114 -111 117 0 3 -8
18 -19 32 -10 15 -21 40 -25 56 -4 16 -36 68 -71 115 -36 47 -79 113 -96 146
-49 92 -78 128 -101 122 -16 -5 -25 6 -52 66 -18 40 -43 102 -55 139 -20 61
-36 79 -53 63 -5 -5 70 -234 97 -297 5 -12 3 -18 -7 -18 -13 0 -90 150 -116
225 -21 61 -60 201 -67 239 -3 21 -8 36 -10 34 -3 -2 0 -29 6 -59 6 -29 12
-65 14 -79 2 -14 4 -25 5 -25 2 0 4 -9 6 -20 1 -11 10 -40 19 -64 21 -57 31
-131 18 -131 -6 0 -16 21 -24 48 -7 26 -12 47 -11 47 2 0 -7 27 -18 59 -11 33
-18 61 -15 64 2 3 -1 14 -6 25 -6 11 -13 34 -16 51 -3 17 -7 38 -8 46 -2 8 -4
18 -4 23 -1 4 -6 7 -12 7 -6 0 -8 -7 -5 -16 17 -44 14 -62 -3 -21 -15 38 -17
54 -9 77 6 20 6 34 -1 47 -9 15 -10 12 -5 -12 5 -20 3 -27 -4 -20 -5 6 -13 30
-16 55 -5 44 -5 44 10 20 l15 -25 -7 25 c-4 14 -6 42 -6 63 1 21 -2 36 -7 33
-5 -3 -12 1 -15 10 -6 16 3 41 16 44 51 11 50 9 47 84 -3 94 8 144 35 158 31
16 36 27 36 83 0 71 18 231 41 364 15 85 17 116 8 127 -12 15 22 139 68 243
27 63 28 77 8 85 -9 3 -15 1 -14 -7 3 -27 -2 -36 -20 -34 -11 0 -17 6 -14 14
3 7 -1 13 -8 13 -7 0 -9 3 -6 6 4 4 14 1 24 -7 9 -8 14 -9 10 -2 -4 6 -3 14 3
18 6 4 7 11 4 17 -4 7 -2 8 4 4 11 -7 13 -3 16 36 1 7 11 24 24 37 13 14 21
33 19 43 -3 11 -1 15 6 11 7 -4 8 0 4 11 -4 10 1 25 12 38 11 11 22 31 26 45
3 14 13 32 21 40 8 8 12 19 9 24 -4 5 1 9 9 9 10 0 13 6 10 15 -4 8 -1 15 5
15 5 0 22 21 37 48 114 199 367 463 633 661 108 81 415 253 491 276 22 6 20 3
-11 -24 -26 -22 -35 -38 -32 -51 4 -14 0 -20 -11 -20 -20 0 -224 -106 -341
-178 -122 -75 -296 -212 -269 -212 4 0 64 38 133 84 191 127 449 266 494 266
22 0 202 47 226 59 9 4 45 16 81 25 36 10 79 26 96 36 45 26 44 26 384 65
l115 13 -110 -1 c-66 -1 -111 2 -113 8 -8 26 427 85 468 64 10 -6 0 -9 -28 -9
-24 0 -41 -4 -38 -9 3 -4 61 -11 128 -15 68 -4 141 -11 163 -16 l40 -8 -54 -1
c-95 -2 -50 -10 85 -15 71 -3 161 -12 199 -21 39 -8 88 -17 111 -19 62 -6 204
-52 363 -117 146 -61 185 -71 108 -29 -23 13 -60 35 -82 50 -45 30 -181 83
-270 105 -33 8 -80 21 -105 29 -58 19 -289 54 -408 62 -90 7 -115 15 -91 30
83 51 445 -25 813 -172 186 -74 300 -133 426 -217 175 -117 266 -194 285 -240
9 -23 42 -68 73 -102 177 -189 394 -465 468 -595 20 -36 48 -85 62 -110 82
-144 201 -619 189 -749 -3 -29 -1 -92 4 -139 6 -56 6 -138 0 -236 -8 -113 -7
-153 1 -164 13 -15 18 -102 7 -102 -6 0 -8 -15 -12 -80 -1 -16 -5 -30 -9 -30
-13 0 -9 -28 5 -33 6 -3 3 -6 -7 -6 -11 -1 -17 -4 -13 -7 3 -4 0 -21 -7 -39
-9 -20 -10 -38 -5 -46 11 -18 11 -32 0 -24 -5 3 -12 1 -16 -5 -3 -5 0 -10 7
-10 9 0 9 -3 -2 -10 -13 -9 -13 -11 0 -20 13 -9 13 -10 0 -10 -16 0 -40 -51
-40 -83 0 -10 -8 -17 -19 -17 -29 0 -38 -17 -95 -181 -65 -184 -81 -221 -140
-319 -25 -41 -56 -95 -69 -120 -21 -38 -115 -167 -159 -219 -10 -12 -9 -14 5
-8 24 9 21 -7 -9 -42 -14 -17 -31 -28 -37 -24 -7 3 -9 3 -5 -2 4 -4 -4 -22
-17 -40 -49 -63 -24 -51 49 24 82 85 176 208 238 313 49 82 61 84 18 2 -16
-32 -24 -52 -16 -44 7 8 36 60 65 115 38 74 45 93 27 72 -14 -15 -26 -25 -26
-22 0 12 31 80 39 85 5 3 18 24 30 47 23 45 47 59 35 21 -5 -19 -3 -18 17 7
13 17 30 37 38 45 12 13 13 12 8 -10 -3 -14 -9 -36 -13 -49 -6 -21 -5 -23 14
-19 12 4 20 3 17 -2 -3 -4 2 -11 11 -14 8 -3 12 -2 9 3 -3 5 0 13 6 17 6 3 18
22 26 41 8 19 16 33 19 30 3 -3 -4 -24 -14 -48 -11 -24 -23 -52 -26 -62 -5
-16 -4 -17 15 -3 12 8 27 12 34 10 7 -3 21 13 34 40 25 54 26 60 6 53 -8 -4
-17 -2 -20 3 -4 6 -1 10 4 10 6 0 11 8 12 18 0 10 3 12 6 5 8 -20 23 -15 23 7
0 12 8 33 17 48 17 26 17 26 0 13 -15 -12 -17 -12 -11 3 3 9 12 16 19 16 18 0
48 82 94 263 46 178 84 355 102 482 29 195 8 642 -36 760 -8 22 -22 72 -30
110 -21 92 -137 439 -175 522 -40 87 -151 271 -220 361 -30 41 -65 88 -76 106
-29 43 -208 239 -276 301 -30 28 -53 55 -51 60 5 15 -85 87 -98 79 -6 -3 -25
7 -42 23 -29 26 -90 77 -220 181 -23 19 -60 43 -82 54 -22 11 -71 41 -110 67
-38 25 -90 53 -115 62 -25 9 -108 43 -185 74 -89 37 -210 76 -335 107 -247 64
-250 64 -405 78 -71 6 -184 17 -250 25 -126 16 -253 17 -345 5z m204 -249 c8
-12 -26 -18 -129 -26 -148 -12 -329 -44 -509 -89 -177 -45 -226 -52 -150 -20
121 51 384 108 576 124 68 6 128 13 133 15 21 7 74 5 79 -4z m124 -8 c-10 -2
-28 -2 -40 0 -13 2 -5 4 17 4 22 1 32 -1 23 -4z m-1038 -167 c0 -3 -4 -8 -10
-11 -5 -3 -10 -1 -10 4 0 6 5 11 10 11 6 0 10 -2 10 -4z m-205 -70 c-22 -14
-42 -23 -44 -20 -2 2 -2 5 0 7 39 23 66 37 74 37 6 0 -8 -11 -30 -24z m-95
-52 c-25 -14 -51 -30 -57 -36 -7 -6 -13 -8 -13 -4 0 9 91 66 104 66 6 0 -9
-12 -34 -26z m3243 -576 c47 -52 197 -256 197 -270 0 -6 -28 25 -62 67 -35 43
-93 113 -130 157 -38 43 -68 81 -68 83 0 16 29 -1 63 -37z m-4368 -807 c-16
-39 -32 -71 -37 -71 -11 0 -6 21 10 38 17 19 15 32 -5 33 -17 1 -17 2 0 6 9 2
17 11 17 19 0 8 7 17 15 20 8 4 15 13 15 21 0 8 -5 11 -12 7 -7 -5 -8 -3 -3 5
5 9 11 9 17 3 7 -7 1 -34 -17 -81z m-44 -117 c-5 -16 -10 -21 -10 -12 -1 18
10 51 15 45 2 -1 -1 -16 -5 -33z m5005 -686 c-1 -24 -5 -49 -9 -55 -5 -7 -4
-13 1 -13 5 0 8 -12 6 -27 -10 -86 -13 -106 -19 -111 -3 -4 -5 51 -3 121 2 88
7 127 15 127 7 0 11 -16 9 -42z m-18 -249 c10 -14 10 -18 -3 -23 -11 -4 -15 1
-15 21 0 14 1 24 3 22 1 -2 8 -11 15 -20z m-5161 -76 c-3 -10 -5 -4 -5 12 0
17 2 24 5 18 2 -7 2 -21 0 -30z m21 -103 l0 -35 -9 40 c-4 22 -8 49 -7 60 0
16 2 15 8 -5 4 -14 8 -41 8 -60z m39 -192 c-3 -7 -5 -2 -5 12 0 14 2 19 5 13
2 -7 2 -19 0 -25z m5248 -25 c-2 -22 -23 -73 -29 -73 -7 0 4 31 16 46 4 6 6
19 2 28 -3 9 -2 16 4 16 5 0 8 -8 7 -17z m-34 -114 c-5 -13 -10 -19 -10 -12
-1 15 10 45 15 40 3 -2 0 -15 -5 -28z m-27 -93 c-3 -15 -8 -25 -11 -23 -2 3
-1 17 3 31 3 15 8 25 11 23 2 -3 1 -17 -3 -31z m-4513 -713 c13 -16 12 -17 -3
-4 -17 13 -22 21 -14 21 2 0 10 -8 17 -17z m85 -95 l29 -33 -32 29 c-31 28
-38 36 -30 36 2 0 16 -15 33 -32z m405 -305 c13 -16 12 -17 -3 -4 -10 7 -18
15 -18 17 0 8 8 3 21 -13z m-11 -29 c0 -3 -6 -1 -13 5 -8 6 -17 8 -21 4 -4 -4
-4 0 -1 10 6 14 9 14 21 2 8 -7 14 -17 14 -21z m90 -21 c0 -7 -39 17 -46 28
-3 6 5 3 20 -6 14 -10 26 -19 26 -22z m45 -53 c3 -5 2 -10 -4 -10 -5 0 -13 5
-16 10 -3 6 -2 10 4 10 5 0 13 -4 16 -10z m49 -9 c3 -5 -1 -11 -9 -14 -9 -4
-12 -1 -8 9 6 16 10 17 17 5z"/>
<path d="M5013 7583 c9 -2 25 -2 35 0 9 3 1 5 -18 5 -19 0 -27 -2 -17 -5z"/>
<path d="M2848 6833 c-41 -49 -173 -271 -165 -279 3 -3 12 5 20 18 48 79 165
278 163 278 -2 0 -10 -8 -18 -17z"/>
<path d="M2661 5034 c0 -11 3 -14 6 -6 3 7 2 16 -1 19 -3 4 -6 -2 -5 -13z"/>
<path d="M2672 4990 c0 -14 2 -19 5 -12 2 6 2 18 0 25 -3 6 -5 1 -5 -13z"/>
<path d="M2697 4815 c6 -52 42 -180 48 -173 2 2 -9 53 -25 113 -19 71 -27 92
-23 60z"/>
<path d="M2632 4800 c0 -14 2 -19 5 -12 2 6 2 18 0 25 -3 6 -5 1 -5 -13z"/>
<path d="M7442 4015 c-17 -37 -14 -45 4 -12 9 16 14 31 11 33 -2 2 -9 -7 -15
-21z"/>
<path d="M7599 3964 c-1 -5 -1 -13 0 -17 1 -4 -8 -3 -18 3 -13 7 -22 7 -26 0
-4 -6 -10 -8 -15 -5 -4 3 -14 -3 -21 -13 -13 -15 -12 -16 4 -3 21 17 22 8 1
-24 -9 -13 -14 -30 -12 -37 2 -6 15 9 27 35 13 26 27 45 31 42 5 -3 -5 -27
-22 -53 -30 -45 -59 -82 -44 -54 4 6 0 19 -8 28 -15 14 -16 13 -14 -8 2 -12
-2 -23 -9 -23 -6 0 -15 -4 -20 -9 -4 -5 -3 -6 4 -2 6 3 14 2 18 -4 6 -9 -8
-14 -28 -11 -5 1 -6 -3 -2 -9 3 -6 12 -7 18 -3 7 4 6 -1 -2 -11 -8 -9 -21 -14
-29 -11 -12 4 -13 3 -2 -10 9 -11 9 -15 1 -15 -7 0 -9 -4 -6 -10 3 -5 1 -11
-4 -11 -6 -1 -16 -2 -22 -3 -16 -2 -38 -48 -31 -65 3 -9 1 -12 -7 -7 -6 4 -11
4 -10 -1 3 -19 -2 -34 -10 -28 -5 3 -19 -8 -31 -25 -12 -16 -18 -30 -14 -30 4
0 -3 -9 -15 -19 -13 -11 -20 -25 -16 -30 3 -6 -1 -11 -9 -11 -9 0 -16 -4 -16
-9 0 -35 -338 -400 -359 -387 -5 3 -8 -2 -7 -11 0 -9 -6 -18 -14 -20 -13 -4
-13 -3 0 6 12 9 12 10 -5 8 -29 -5 -75 -29 -75 -39 0 -4 -7 -8 -15 -8 -8 0
-15 -4 -15 -10 0 -15 36 -12 49 3 6 8 7 18 3 22 -4 5 1 5 10 2 10 -3 17 -3 17
1 -3 19 2 26 10 13 7 -10 -5 -26 -42 -57 -29 -24 -57 -44 -63 -44 -7 0 -14 -7
-18 -15 -3 -8 -12 -15 -21 -15 -8 0 -15 -4 -15 -8 0 -5 -18 -17 -39 -28 -22
-10 -38 -21 -36 -25 5 -8 -33 -4 -41 4 -4 4 1 7 12 8 11 0 13 3 6 6 -12 4
-102 -42 -102 -53 0 -3 4 -3 9 0 5 3 22 -1 39 -10 37 -18 36 -18 167 69 231
154 383 283 536 457 125 141 136 159 116 179 -8 8 -6 11 9 11 16 0 17 2 4 10
-13 8 -12 10 3 10 10 0 15 5 12 10 -3 6 1 10 9 10 9 0 16 5 16 10 0 6 -5 10
-11 10 -5 0 -7 5 -4 10 5 8 12 7 23 -2 14 -12 14 -10 3 10 -10 19 -9 22 8 22
11 0 25 9 31 20 9 16 8 19 -7 14 -10 -2 -8 1 5 7 12 7 21 19 20 28 -2 9 4 16
12 16 8 0 21 8 28 18 12 15 12 21 0 34 -11 15 -11 16 6 10 14 -6 17 -4 12 9
-4 12 -2 15 9 10 9 -3 15 0 15 10 0 9 -5 12 -12 8 -9 -5 -9 -3 1 9 7 9 17 14
22 11 5 -3 9 1 9 9 0 8 6 17 14 20 15 6 32 64 22 74 -3 4 -7 2 -7 -3z m-95
-195 c-3 -5 -10 -7 -15 -3 -5 3 -7 10 -3 15 3 5 10 7 15 3 5 -3 7 -10 3 -15z
m-104 -57 c0 -5 -7 -17 -15 -28 -14 -18 -14 -17 -4 9 12 27 19 34 19 19z m-30
-99 c0 -1 -14 -10 -31 -18 -29 -15 -30 -15 -20 2 5 10 19 19 30 19 12 0 21 -1
21 -3z m-430 -508 c-7 -8 -17 -15 -23 -15 -6 0 -2 7 9 15 25 19 30 19 14 0z
m-377 -229 c4 -10 1 -13 -7 -10 -8 3 -17 0 -21 -5 -3 -6 -11 -8 -17 -5 -8 5
19 29 38 34 1 0 4 -7 7 -14z"/>
<path d="M7263 3698 c-15 -20 -25 -38 -20 -38 3 0 12 11 21 25 17 26 16 35 -1
13z"/>
<path d="M7309 3663 c-13 -16 -12 -17 4 -4 16 13 21 21 13 21 -2 0 -10 -8 -17
-17z"/>
<path d="M3613 3567 c1 -7 -4 -11 -12 -9 -12 3 -12 0 -1 -12 14 -18 25 -22 15
-6 -16 26 23 4 103 -58 96 -75 292 -197 417 -259 81 -41 245 -105 300 -117
l30 -7 -29 26 c-16 14 -32 21 -36 16 -3 -6 -29 3 -59 19 -29 16 -58 27 -64 23
-6 -3 -7 -1 -3 6 4 6 0 14 -8 17 -9 3 -13 10 -10 15 3 5 2 9 -3 8 -20 -3 -34
2 -28 11 3 6 -1 7 -9 4 -14 -5 -20 4 -18 27 1 3 -11 4 -26 2 -17 -2 -36 4 -52
18 -14 11 -19 17 -11 13 9 -4 12 -3 7 4 -4 6 -14 8 -23 5 -10 -4 -14 -2 -10 4
4 7 -7 16 -27 23 -19 6 -71 33 -115 60 -45 26 -78 43 -75 37 3 -7 0 -5 -8 3
-30 35 -88 65 -72 38 4 -7 -3 -3 -15 10 -24 25 -40 30 -21 7 25 -31 -10 -14
-74 34 -36 28 -65 45 -63 38z"/>
<path d="M3650 3506 c0 -2 23 -21 51 -41 28 -20 48 -32 45 -26 -8 12 -96 74
-96 67z"/>
<path d="M3635 3430 c3 -5 16 -15 28 -21 l22 -11 -22 21 c-23 22 -39 28 -28
11z"/>
<path d="M3775 3411 c11 -13 43 -34 70 -48 28 -14 59 -33 70 -43 23 -20 247
-140 261 -140 5 0 -31 22 -81 49 -124 65 -135 72 -175 103 -19 14 -53 33 -75
42 -22 10 -51 27 -65 39 l-25 22 20 -24z"/>
<path d="M6855 3324 c-57 -53 -234 -192 -365 -287 -14 -10 6 -2 44 17 73 37
101 39 52 2 -16 -11 -54 -42 -85 -67 -66 -54 -171 -120 -261 -166 -36 -19 -54
-31 -40 -27 47 12 334 165 430 229 93 62 172 133 320 290 57 61 61 77 5 20 -5
-5 -27 -22 -47 -38 -21 -15 -52 -41 -70 -57 -35 -32 -52 -37 -64 -18 -5 7 25
41 77 89 46 43 82 78 79 78 -3 0 -36 -29 -75 -65z"/>
<path d="M3065 3331 c27 -28 51 -51 53 -51 8 0 -54 67 -78 85 -14 10 -3 -5 25
-34z"/>
<path d="M4146 3292 c-3 -5 1 -9 9 -9 8 0 12 4 9 9 -3 4 -7 8 -9 8 -2 0 -6 -4
-9 -8z"/>
<path d="M3901 3286 c10 -9 69 -36 69 -32 0 6 -55 36 -66 36 -4 0 -5 -2 -3 -4z"/>
<path d="M3416 3229 c66 -73 282 -232 384 -284 19 -9 42 -23 50 -30 8 -7 46
-29 84 -49 80 -42 97 -54 95 -70 -1 -6 1 -19 5 -28 5 -11 2 -23 -8 -34 -18
-17 -53 -10 -131 28 -22 11 -35 15 -29 8 11 -11 38 -26 195 -109 31 -17 59
-28 62 -25 10 10 297 -87 297 -101 0 -17 161 -58 330 -84 109 -16 150 -19 215
-11 44 5 130 9 192 9 61 1 118 4 127 7 16 6 24 37 9 32 -8 -3 -13 5 -13 21 0
5 18 12 40 16 26 4 41 13 45 26 6 19 26 24 73 20 14 -1 22 3 21 11 -3 29 2 35
33 36 36 1 168 32 168 39 0 6 -141 -6 -200 -17 -35 -7 -47 -6 -56 6 -13 16
-52 18 -74 4 -10 -6 -20 -4 -30 5 -9 8 -37 23 -62 35 -42 18 -59 20 -172 14
-119 -7 -127 -8 -142 -31 -15 -24 -19 -25 -87 -18 -149 14 -317 53 -366 84
-72 46 -239 103 -281 96 -38 -6 -42 -5 -290 108 -92 43 -193 101 -319 184
-101 68 -175 113 -165 102z"/>
<path d="M3994 3236 c11 -9 24 -16 30 -16 12 0 7 5 -24 19 -24 11 -24 11 -6
-3z"/>
<path d="M4285 3221 c-3 -5 -2 -12 3 -15 5 -3 9 1 9 9 0 17 -3 19 -12 6z"/>
<path d="M4326 3182 c12 -11 64 -33 64 -27 0 5 -56 35 -67 35 -4 0 -3 -4 3 -8z"/>
<path d="M3284 3128 c68 -59 198 -158 208 -158 5 0 -35 33 -89 74 -54 41 -109
86 -122 100 -14 14 -29 26 -35 26 -6 0 11 -19 38 -42z"/>
<path d="M4250 3136 c0 -2 7 -7 16 -10 8 -3 12 -2 9 4 -6 10 -25 14 -25 6z"/>
<path d="M4200 3080 c8 -5 20 -10 25 -10 6 0 3 5 -5 10 -8 5 -19 10 -25 10 -5
0 -3 -5 5 -10z"/>
<path d="M3609 3026 c13 -16 51 -41 51 -33 0 2 -15 14 -32 27 -21 15 -28 17
-19 6z"/>
<path d="M6330 2950 c-69 -38 -171 -88 -227 -111 -57 -24 -103 -46 -103 -51 0
-12 -2 -12 106 38 154 71 284 139 335 176 45 32 14 17 -111 -52z"/>
<path d="M4457 2979 c7 -7 15 -10 18 -7 3 3 -2 9 -12 12 -14 6 -15 5 -6 -5z"/>
<path d="M4498 2963 c6 -2 18 -2 25 0 6 3 1 5 -13 5 -14 0 -19 -2 -12 -5z"/>
<path d="M6635 2960 c-3 -6 1 -7 9 -4 18 7 21 14 7 14 -6 0 -13 -4 -16 -10z"/>
<path d="M6599 2933 c-13 -16 -12 -17 4 -4 9 7 17 15 17 17 0 8 -8 3 -21 -13z"/>
<path d="M3868 2853 c7 -3 16 -2 19 1 4 3 -2 6 -13 5 -11 0 -14 -3 -6 -6z"/>
<path d="M6431 2829 c-40 -24 -209 -110 -331 -167 -47 -22 -138 -57 -203 -77
-64 -21 -115 -40 -113 -42 10 -10 396 107 422 129 7 5 27 8 45 7 21 -1 64 12
110 34 77 37 105 58 92 71 -4 4 1 4 11 0 15 -6 17 -4 11 6 -5 9 -4 11 3 6 6
-4 26 1 44 10 l33 18 -33 9 c-25 8 -36 7 -50 -5 -27 -24 -142 -82 -148 -75 -3
3 20 19 52 36 56 28 105 60 94 61 -3 0 -20 -10 -39 -21z"/>
<path d="M3730 2821 c0 -5 7 -12 16 -15 14 -5 15 -4 4 9 -14 17 -20 19 -20 6z"/>
<path d="M5728 2713 c7 -3 16 -2 19 1 4 3 -2 6 -13 5 -11 0 -14 -3 -6 -6z"/>
<path d="M5700 2669 c0 -5 5 -7 10 -4 6 3 10 8 10 11 0 2 -4 4 -10 4 -5 0 -10
-5 -10 -11z"/>
<path d="M5590 2510 l-35 -7 40 -1 c22 0 51 4 65 8 24 8 24 8 -5 8 -16 0 -46
-4 -65 -8z"/>
</g>
</svg>
